<svg width="16" height="19" viewBox="0 0 16 19" fill="none" xmlns="http://www.w3.org/2000/svg">
<path d="M6.16013 16.8812V15V9.58268C6.16013 8.84622 5.86055 8.15247 5.35376 7.67671C5.35375 7.6767 5.35373 7.67668 5.35372 7.67667L2.90601 5.37928L2.90594 5.37921C2.88485 5.35941 2.86354 5.33945 2.84205 5.31932C2.48402 4.98399 2.07591 4.60175 1.77357 4.10147C1.43543 3.54194 1.25 2.87926 1.25 2V1.25H2H14H14.75V2C14.75 2.87923 14.5646 3.54191 14.2265 4.10145C13.924 4.6019 13.5158 4.98418 13.1576 5.31957C13.1362 5.33959 13.115 5.35945 13.094 5.37915L6.16013 16.8812ZM6.16013 16.8812L7.4544 15.516L9.49699 13.3615C9.71715 13.1293 9.83987 12.8215 9.83987 12.5015V9.58256C9.83987 8.84622 10.1395 8.15247 10.6463 7.6767C10.6463 7.67669 10.6463 7.67668 10.6463 7.67667L13.094 5.37917L6.16013 16.8812Z" stroke="#1E1F21" stroke-width="1.5"/>
</svg>
